# xmcd
#
# Track frame offsets: 
#        150
#        20277
#        34431
#        47750
#        66344
#        83058
#        99497
#        125752
#        144186
#        162324
#        183538
#
# Disc length: 2721 seconds
#
# Revision: 0
# Processed by: cddbd v1.5.2PL0 Copyright (c) Steve Scherf et al.
# Submitted via: ExactAudioCopyFreeDBPlugin 1.0
#
DISCID=950a9f0b
DTITLE=Kim Churchill - Detail of Distance
DYEAR=2012
DGENRE=Folk
TTITLE0=Coded in Concrete
TTITLE1=The Crazy
TTITLE2=Sarah
TTITLE3=Bathed in Black
TTITLE4=Season's Grind
TTITLE5=Wander the Tracks
TTITLE6=It Will Be Morning Soon
TTITLE7=Embers
TTITLE8=Dying Sun #1
TTITLE9=Early Days
TTITLE10=Detail of Distance
EXTD=
EXTT0=
EXTT1=
EXTT2=
EXTT3=
EXTT4=
EXTT5=
EXTT6=
EXTT7=
EXTT8=
EXTT9=
EXTT10=
PLAYORDER=
